<svg width="96" height="96" viewBox="0 -21.5 167 167" fill="none" xmlns="http://www.w3.org/2000/svg">
  <style>
    path { fill: #242422; }
    @media (prefers-color-scheme: dark) {
      path { fill: #ffffff; }
    }
  </style>
  <path d="M57.5364 53.3142C52.1508 53.3142 47.7887 57.6763 47.7887 63.0618V123.88H53.9963V63.0618C53.9963 61.0989 55.5902 59.505 57.5531 59.505C59.5161 59.505 61.11 61.0989 61.11 63.0618V123.88H67.3176V63.0618C67.3176 57.6763 62.9555 53.3142 57.5699 53.3142H57.5364Z"/>
  <path d="M109.121 53.3142C103.735 53.3142 99.3734 57.6763 99.3734 63.0618V123.88H105.581V63.0618C105.581 61.0989 107.175 59.505 109.138 59.505C111.101 59.505 112.695 61.0989 112.695 63.0618V123.88H118.902V63.0618C118.902 57.6763 114.54 53.3142 109.155 53.3142H109.121Z"/>
  <path d="M83.3286 53.3142C77.9431 53.3142 73.5809 57.6763 73.5809 63.0618V123.88H79.7886V63.0618C79.7886 61.0989 81.3824 59.505 83.3454 59.505C85.3083 59.505 86.9022 61.0989 86.9022 63.0618V123.88H93.1098V63.0618C93.1098 57.6763 88.7477 53.3142 83.3622 53.3142H83.3286Z"/>
  <path d="M143.782 28.035L148.077 20.5691H158.06L166.667 0H0L8.60681 20.5691H18.5894L22.8676 28.035C14.5292 30.8872 7.66727 38.135 7.66727 49.0571C7.66727 59.9792 15.5526 69.2235 27.3639 69.2235C29.9477 69.2235 32.3468 68.6867 34.4776 67.7471V123.901H40.6684V62.7978C42.6146 60.1637 43.7555 56.8754 43.8393 53.1508C43.8393 53.1005 43.8561 53.0333 43.8561 52.9662C43.8561 52.9159 43.8393 52.8823 43.8393 52.832C43.8393 52.7985 43.8561 52.7649 43.8561 52.7314C43.8561 52.681 43.8393 52.6307 43.8393 52.5636C43.7722 50.047 43.1011 47.6981 41.9267 45.7016H124.74C123.566 47.6981 122.894 50.047 122.827 52.5636C122.827 52.6307 122.811 52.681 122.811 52.7314V52.9662C122.811 52.9662 122.827 53.1005 122.827 53.1508C122.911 56.8754 124.052 60.1637 125.998 62.7978V123.901H132.189V67.7471C134.32 68.6867 136.702 69.2235 139.303 69.2235C151.097 69.2235 158.999 59.5765 158.999 49.0571C158.999 38.5377 152.121 30.8872 143.782 28.035ZM12.734 14.3615L9.31146 6.20764H157.355L153.933 14.3615H12.734ZM140.93 20.5691L137.491 26.5586H29.1759L25.7365 20.5691H140.93ZM139.303 63.0159C133.246 63.0159 129.085 58.9222 129.018 52.8991C129.052 48.6377 131.803 45.7855 135.796 45.7352H135.914C138.414 45.7352 140.46 47.7988 140.46 49.9631V50.0637C140.41 51.3221 139.403 52.2951 138.145 52.2951C136.434 52.2951 135.041 53.6877 135.041 55.399C135.041 57.1103 136.434 58.5028 138.145 58.5028C142.843 58.5028 146.685 54.6943 146.685 49.9631C146.685 49.8121 146.651 49.6611 146.634 49.5269C146.383 43.9736 141.836 39.5443 135.83 39.5443H83.3166L82.9139 39.5275H82.4945L30.8369 39.5443C24.8305 39.5443 20.2839 43.9736 20.0322 49.5269C20.0154 49.6611 19.9819 49.8121 19.9819 49.9631C19.9819 54.6943 23.8239 58.5028 28.5216 58.5028C30.2329 58.5028 31.6254 57.1103 31.6254 55.399C31.6254 53.6877 30.2329 52.2951 28.5216 52.2951C27.2633 52.2951 26.2566 51.3221 26.1895 50.0637C26.1895 50.0302 26.2063 49.9966 26.2063 49.9631C26.2063 47.7988 28.2364 45.7352 30.753 45.7352H30.8536C34.8634 45.7855 37.6149 48.6377 37.6485 52.8991C37.5814 58.9222 33.4038 63.0159 27.3639 63.0159C19.4114 63.0159 13.8749 56.5902 13.8749 49.0571C13.8749 38.89 21.8442 32.7495 31.6925 32.7495H134.974C144.822 32.7495 152.792 38.89 152.792 49.0571C152.792 56.5902 147.255 63.0159 139.303 63.0159Z"/>
</svg>
